HIERARCHY
ROOT hip
{
  OFFSET 0 0 0
  CHANNELS 6 Xposition Yposition Zposition Zrotation Yrotation Xrotation
  JOINT abdomen
  {
    OFFSET 0 20.6881 -0.73152
    CHANNELS 3 Zrotation Xrotation Yrotation
    JOINT chest
    {
      OFFSET 0 11.7043 -0.48768
      CHANNELS 3 Zrotation Xrotation Yrotation
      JOINT neck
      {
        OFFSET 0 22.1894 -2.19456
        CHANNELS 3 Zrotation Xrotation Yrotation
        JOINT head
        {
          OFFSET -0.24384 7.07133 1.2192
          CHANNELS 3 Zrotation Xrotation Yrotation
          JOINT leftEye
          {
            OFFSET 4.14528 8.04674 8.04672
            CHANNELS 3 Zrotation Xrotation Yrotation
            End Site
            {
              OFFSET 1 0 0
            }
          }
          JOINT rightEye
          {
            OFFSET -3.6576 8.04674 8.04672
            CHANNELS 3 Zrotation Xrotation Yrotation
            End Site
            {
              OFFSET 1 0 0
            }
          }
        }
      }
      JOINT rCollar
      {
        OFFSET -2.68224 19.2634 -4.8768
        CHANNELS 3 Zrotation Xrotation Yrotation
        JOINT rShldr
        {
          OFFSET -8.77824 -1.95073 1.46304
          CHANNELS 3 Zrotation Xrotation Yrotation
          JOINT rForeArm
          {
            OFFSET -28.1742 -1.7115 0.48768
            CHANNELS 3 Zrotation Xrotation Yrotation
            JOINT rHand
            {
              OFFSET -22.5879 0.773209 7.07136
              CHANNELS 3 Zrotation Xrotation Yrotation
              JOINT rThumb1
              {
                OFFSET -1.2192 -0.487915 3.41376
                CHANNELS 3 Zrotation Xrotation Yrotation
                JOINT rThumb2
                {
                  OFFSET -3.37035 -0.52449 3.41376
                  CHANNELS 3 Zrotation Xrotation Yrotation
                  End Site
                  {
                    OFFSET -1.78271 -1.18214 1.43049
                  }
                }
              }
              JOINT rIndex1
              {
                OFFSET -7.75947 0.938293 5.60832
                CHANNELS 3 Zrotation Xrotation Yrotation
                JOINT rIndex2
                {
                  OFFSET -2.54057 -0.884171 1.56538
                  CHANNELS 3 Zrotation Xrotation Yrotation
                  End Site
                  {
                    OFFSET -1.62519 -0.234802 1.16502
                  }
                }
              }
              JOINT rMid1
              {
                OFFSET -8.24714 1.18213 3.41376
                CHANNELS 3 Zrotation Xrotation Yrotation
                JOINT rMid2
                {
                  OFFSET -3.10165 -0.590103 1.0647
                  CHANNELS 3 Zrotation Xrotation Yrotation
                  End Site
                  {
                    OFFSET -2.48547 -0.328903 0.83742
                  }
                }
              }
              JOINT rRing1
              {
                OFFSET -8.82822 0.546677 1.51678
                CHANNELS 3 Zrotation Xrotation Yrotation
                JOINT rRing2
                {
                  OFFSET -2.60934 -0.819778 -0.0198488
                  CHANNELS 3 Zrotation Xrotation Yrotation
                  End Site
                  {
                    OFFSET -2.33842 -0.294052 0.168128
                  }
                }
              }
              JOINT rPinky1
              {
                OFFSET -8.27202 -0.0477905 -0.4584
                CHANNELS 3 Zrotation Xrotation Yrotation
                JOINT rPinky2
                {
                  OFFSET -1.82734 -0.647385 -0.700984
                  CHANNELS 3 Zrotation Xrotation Yrotation
                  End Site
                  {
                    OFFSET -1.69225 -0.51767 -0.607171
                  }
                }
              }
            }
          }
        }
      }
      JOINT lCollar
      {
        OFFSET 2.68224 19.2634 -4.8768
        CHANNELS 3 Zrotation Xrotation Yrotation
        JOINT lShldr
        {
          OFFSET 8.77824 -1.95073 1.46304
          CHANNELS 3 Zrotation Xrotation Yrotation
          JOINT lForeArm
          {
            OFFSET 28.1742 -1.7115 0.48768
            CHANNELS 3 Zrotation Xrotation Yrotation
            JOINT lHand
            {
              OFFSET 22.5879 0.773209 7.07136
              CHANNELS 3 Zrotation Xrotation Yrotation
              JOINT lThumb1
              {
                OFFSET 1.2192 -0.487915 3.41376
                CHANNELS 3 Zrotation Xrotation Yrotation
                JOINT lThumb2
                {
                  OFFSET 3.37035 -0.52449 3.41376
                  CHANNELS 3 Zrotation Xrotation Yrotation
                  End Site
                  {
                    OFFSET 1.78271 -1.18214 1.43049
                  }
                }
              }
              JOINT lIndex1
              {
                OFFSET 7.75947 0.938293 5.60832
                CHANNELS 3 Zrotation Xrotation Yrotation
                JOINT lIndex2
                {
                  OFFSET 2.54057 -0.884171 1.56538
                  CHANNELS 3 Zrotation Xrotation Yrotation
                  End Site
                  {
                    OFFSET 1.62519 -0.234802 1.16502
                  }
                }
              }
              JOINT lMid1
              {
                OFFSET 8.24714 1.18213 3.41376
                CHANNELS 3 Zrotation Xrotation Yrotation
                JOINT lMid2
                {
                  OFFSET 3.10165 -0.590103 1.0647
                  CHANNELS 3 Zrotation Xrotation Yrotation
                  End Site
                  {
                    OFFSET 2.48547 -0.328903 0.83742
                  }
                }
              }
              JOINT lRing1
              {
                OFFSET 8.82822 0.546677 1.51678
                CHANNELS 3 Zrotation Xrotation Yrotation
                JOINT lRing2
                {
                  OFFSET 2.60934 -0.819778 -0.0198488
                  CHANNELS 3 Zrotation Xrotation Yrotation
                  End Site
                  {
                    OFFSET 2.33842 -0.294052 0.168128
                  }
                }
              }
              JOINT lPinky1
              {
                OFFSET 8.27202 -0.0477905 -0.4584
                CHANNELS 3 Zrotation Xrotation Yrotation
                JOINT lPinky2
                {
                  OFFSET 1.82734 -0.647385 -0.700984
                  CHANNELS 3 Zrotation Xrotation Yrotation
                  End Site
                  {
                    OFFSET 1.69225 -0.51767 -0.607171
                  }
                }
              }
            }
          }
        }
      }
    }
  }
  JOINT rButtock
  {
    OFFSET -8.77824 4.35084 1.2192
    CHANNELS 3 Zrotation Xrotation Yrotation
    JOINT rThigh
    {
      OFFSET 0 -1.70687 -2.19456
      CHANNELS 3 Zrotation Xrotation Yrotation
      JOINT rShin
      {
        OFFSET 0 -36.8199 0.73152
        CHANNELS 3 Zrotation Xrotation Yrotation
        JOINT rFoot
        {
          OFFSET 0.73152 -45.1104 -5.12064
          CHANNELS 3 Zrotation Xrotation Yrotation
          End Site
          {
            OFFSET -1.1221 -3.69964 12.103
          }
        }
      }
    }
  }
  JOINT lButtock
  {
    OFFSET 8.77824 4.35084 1.2192
    CHANNELS 3 Zrotation Xrotation Yrotation
    JOINT lThigh
    {
      OFFSET 0 -1.70687 -2.19456
      CHANNELS 3 Zrotation Xrotation Yrotation
      JOINT lShin
      {
        OFFSET 0 -36.8199 0.73152
        CHANNELS 3 Zrotation Xrotation Yrotation
        JOINT lFoot
        {
          OFFSET -0.73152 -45.1104 -5.12064
          CHANNELS 3 Zrotation Xrotation Yrotation
          End Site
          {
            OFFSET 1.1221 -3.69964 12.103
          }
        }
      }
    }
  }
}
MOTION
Frames:	4
Frame Time:	0.03333
-0.0020013190805912018 60.42868494987488 0.1802605576813221 -2.148918867111206 3.0421571731567383 6.293158054351807 -3.229146957397461 13.673298835754395 3.6953277587890625 3.0820140838623047 -9.30739688873291 1.1745810508728027 -5.402370929718018 14.379108428955078 -4.38472318649292 8.811422348022461 -24.520484924316406 -6.5312347412109375 -0.06124252825975418 0.03903806954622269 -0.10295334458351135 -0.005289165768772364 -0.0613812655210495 0.01552590262144804 0.038031771779060364 0.08727729320526123 0.003938581794500351 50.55240249633789 38.9443473815918 12.399068832397461 -28.144577026367188 -32.24115753173828 70.59684753417969 0.0830749124288559 2.395325183868408 0.2021055519580841 0.07226748019456863 -0.05407407507300377 0.04308205097913742 -0.020179305225610733 -0.013884445652365685 -0.037954892963171005 0.025715678930282593 0.06852279603481293 -0.042341407388448715 7.778288841247559 5.488618850708008 0.34212639927864075 0.03046260215342045 -0.02729634940624237 -0.022418873384594917 2.920804977416992 0.926391065120697 0.18375614285469055 0.03623654320836067 -0.015371181070804596 0.03934062644839287 10.348865509033203 0.772060751914978 -0.0024911845102906227 0.0005659813759848475 0.0811057910323143 -0.09864632040262222 2.3076822757720947 -0.7115540504455566 -0.19453862309455872 0.05085854232311249 0.06778959184885025 -0.023413928225636482 -58.509883880615234 37.108036041259766 -22.190738677978516 28.43840217590332 -34.66441345214844 -75.0057601928711 0.3998067080974579 -19.093420028686523 2.6739373207092285 -0.042944349348545074 0.003999039530754089 0.038335058838129044 0.08134031295776367 0.06524470448493958 -0.05680479854345322 -0.014544148929417133 0.062106385827064514 -0.057881467044353485 -7.76609468460083 5.544074058532715 -0.49948063492774963 -0.04793095961213112 0.010256857611238956 -0.011462070979177952 -2.8572025299072266 0.9955804944038391 -0.2060088962316513 -0.03216612711548805 -0.01885697804391384 -0.057997576892375946 -10.260132789611816 0.7028644680976868 -0.06048467755317688 0.05931969732046127 0.06241350620985031 -0.05165284872055054 -2.27481746673584 -0.6615728735923767 0.23178277909755707 0.018107818439602852 -0.047870248556137085 -0.028685515746474266 -31.107524871826172 -46.59619140625 -26.06059455871582 -1.7331067323684692 67.8262710571289 2.474926471710205 -4.0312628746032715 -11.973808288574219 -11.61604118347168 0.059511784464120865 0.040906548500061035 0.08971281349658966 35.446720123291016 -44.197105407714844 27.920085906982422 1.9628491401672363 69.29070281982422 -2.7869160175323486 4.750086784362793 -12.445404052734375 14.875077247619629
0.08050734177231789 63.09385895729065 0.2524220384657383 -1.532264232635498 3.111520290374756 6.336725234985352 -3.6528892517089844 13.546354293823242 3.4177958965301514 3.066619873046875 -9.29953384399414 1.1572836637496948 -5.434504985809326 14.622294425964355 -4.149937152862549 9.300066947937012 -24.61456871032715 -5.753758430480957 -0.010892796330153942 0.029119139537215233 0.012386655434966087 0.04881291836500168 -0.034339822828769684 0.04697457328438759 -0.017837200313806534 0.08370732516050339 0.003708360716700554 49.617408752441406 39.211612701416016 13.428540229797363 -28.190505981445312 -32.01536178588867 70.0760726928711 0.16892209649085999 3.018883466720581 0.13865070044994354 -0.04880467802286148 0.0016826163046061993 0.012524639256298542 0.009748670272529125 -0.04832974821329117 -0.002685442566871643 -0.0018666257383301854 0.017640860751271248 -0.03332109749317169 7.728297710418701 5.42972469329834 0.39215001463890076 -0.0023930761963129044 -0.025944363325834274 0.0010513622546568513 2.8578121662139893 0.88807612657547 0.1681530475616455 0.022247232496738434 0.012692679651081562 0.05785699933767319 10.279220581054688 0.716804563999176 0.03263900429010391 -0.06405262649059296 -0.01329149678349495 -0.0604143887758255 2.2859461307525635 -0.6751209497451782 -0.1681041568517685 0.08308685570955276 0.061420340090990067 -0.04210030287504196 -60.0411376953125 36.25020217895508 -22.01649284362793 28.19166374206543 -34.35710525512695 -74.57393646240234 0.29474833607673645 -18.600221633911133 2.6249496936798096 -0.06890764087438583 0.009119711816310883 0.0567220076918602 0.015626857057213783 0.032547082751989365 -0.0488005205988884 -0.019052809104323387 0.040053825825452805 -0.008874531835317612 -7.699699401855469 5.58621072769165 -0.4416239261627197 -0.040995340794324875 0.05466850847005844 -0.0022794592659920454 -2.94502592086792 1.0086050033569336 -0.10177239775657654 -0.051149699836969376 -0.0721665620803833 -0.005298507399857044 -10.302377700805664 0.648888349533081 -0.04748982936143875 -0.014489850960671902 0.05472315102815628 -0.012958736158907413 -2.2184321880340576 -0.6991726160049438 0.2598467767238617 -0.0332217812538147 -0.037124376744031906 -0.039966486394405365 -32.52072525024414 -47.50075912475586 -27.25468635559082 -1.8521339893341064 68.46761322021484 2.870765209197998 -4.007796287536621 -11.462886810302734 -12.14682388305664 0.09659165143966675 0.03095743991434574 0.05616579204797745 35.68421936035156 -43.55500030517578 28.268495559692383 1.9188807010650635 68.6287841796875 -2.6806979179382324 4.930718898773193 -12.481465339660645 15.606527328491211
-0.059155747294425964 65.39161801338196 0.3580458462238312 -49.89635467529297 64.70614624023438 -58.21820068359375 -9.99320125579834 25.4600772857666 -0.7374482154846191 7.347562789916992 -10.109128952026367 0.13566061854362488 -9.447510719299316 19.47287368774414 -14.963461875915527 22.65068244934082 -22.546428680419922 -26.720726013183594 -0.06836624443531036 0.017725378274917603 0.037462376058101654 0.014628555625677109 -0.06203771382570267 0.007965140976011753 0.048176299780607224 0.07484990358352661 0.058064818382263184 28.42447853088379 0.2599700391292572 15.24249267578125 -27.44207000732422 -42.47064208984375 88.34615325927734 -0.5150402188301086 -18.929643630981445 -2.8858039379119873 -0.08151863515377045 -0.07932408154010773 0.039587803184986115 0.08419925719499588 0.060499779880046844 0.06587086617946625 0.09906035661697388 0.014565901830792427 -0.23389461636543274 7.729714393615723 5.470067501068115 0.43878766894340515 -0.00820592325180769 0.06999075412750244 -0.018555711954832077 2.792442560195923 0.9126771688461304 0.09865069389343262 0.011852022260427475 0.07422028481960297 0.029637686908245087 10.247307777404785 0.7507513165473938 0.06165122240781784 0.11716616898775101 0.08839784562587738 0.02177097275853157 2.266113758087158 -0.6865612864494324 -0.2168622612953186 0.03534940630197525 -0.01273846160620451 -0.05756398290395737 -51.93923568725586 35.713218688964844 -2.0970444679260254 28.035228729248047 -39.85798263549805 -83.31381225585938 0.3325447738170624 -16.469099044799805 2.170488119125366 -0.01844273880124092 -0.00303852092474699 -0.03290991485118866 -0.022320087999105453 0.03081824630498886 -0.06740813702344894 -0.14758332073688507 -0.059641338884830475 -0.013559538871049881 -7.754462242126465 5.402091979980469 -0.39964044094085693 -0.028035083785653114 -0.029340211302042007 0.019975369796156883 -2.9202888011932373 0.8890672326087952 -0.11552519351243973 -0.049119655042886734 0.06081767380237579 0.08675243705511093 -10.302289962768555 0.6855093836784363 0.002639125334098935 0.06835963577032089 0.07487988471984863 -0.12274664640426636 -2.1725118160247803 -0.6979702711105347 0.25112149119377136 -0.07592012733221054 -0.07330301403999329 -0.02566634863615036 -53.07530212402344 -69.31826782226562 -47.27396774291992 -173.37420654296875 80.68803405761719 174.3412322998047 -0.003528848523274064 -1.6951180696487427 5.700164318084717 0.003095325781032443 0.08710435032844543 0.0789983794093132 9.799139976501465 -25.10808563232422 -3.0908172130584717 0.6111545562744141 53.10050964355469 -2.026359796524048 7.227596282958984 -14.804572105407715 16.36498260498047
-0.5186920054256916 70.22716403007507 0.746417511254549 -55.84056091308594 64.20149993896484 -62.234291076660156 -9.00407886505127 27.907915115356445 -1.1593331098556519 8.94159984588623 -9.62643814086914 -0.06574367731809616 -9.541836738586426 19.541446685791016 -15.379352569580078 25.1374568939209 -20.905597686767578 -26.67310333251953 -0.10801827162504196 -0.09530150145292282 0.12889790534973145 0.01447870209813118 -0.038216106593608856 -0.011696706525981426 0.047983404248952866 0.043289847671985626 0.08699885755777359 27.950809478759766 -0.10768209397792816 12.19106674194336 -27.78683853149414 -41.818626403808594 86.77015686035156 -0.5814518332481384 -18.192668914794922 -2.5624029636383057 -0.11722034960985184 0.018878484144806862 -0.08677263557910919 0.165015310049057 0.07924401760101318 -0.026655057445168495 0.08922252804040909 -0.011294042691588402 -0.1621161699295044 7.769052982330322 5.451164722442627 0.5408437848091125 -0.026016943156719208 0.07511639595031738 -0.013835936784744263 2.9045379161834717 0.9446245431900024 0.11256309598684311 0.05435679852962494 0.04788042604923248 0.08024251461029053 10.2506103515625 0.806887686252594 0.03783204033970833 0.13661055266857147 0.09391755610704422 0.013241870328783989 2.2268803119659424 -0.7288116216659546 -0.25123289227485657 0.06293055415153503 -0.00914944987744093 -0.07274167239665985 -43.160892486572266 32.56534957885742 -5.7046403884887695 28.37697410583496 -39.41389083862305 -82.21907806396484 0.07116881757974625 -15.295883178710938 2.0783259868621826 -0.04537813737988472 -0.004708224907517433 -0.06761551648378372 -0.024355942383408546 0.02811652421951294 0.001571128610521555 -0.12465695291757584 -0.07520218193531036 0.029110921546816826 -7.8268022537231445 5.403861999511719 -0.4202379584312439 -0.07855220139026642 -0.09313566237688065 0.00170125940348953 -2.8880019187927246 0.8631276488304138 -0.1262381672859192 -0.06839240342378616 0.04674630984663963 0.14801332354545593 -10.314570426940918 0.7009155750274658 -0.017929833382368088 -0.028684405609965324 0.04147859290242195 -0.2561032176017761 -2.1954269409179688 -0.7058327198028564 0.30953720211982727 -0.0237091314047575 -0.05024205893278122 -0.08670514822006226 -55.315330505371094 -67.40186309814453 -46.893455505371094 -174.7246856689453 73.48284912109375 175.9552001953125 0.6599628925323486 -0.6759763956069946 5.4167094230651855 0.007633355911821127 0.08071751147508621 0.03831065446138382 12.086352348327637 -24.435161590576172 -3.6526875495910645 0.923791766166687 50.89773941040039 -2.0164923667907715 7.207493305206299 -14.504493713378906 15.6915922164917
